<svg xmlns="http://www.w3.org/2000/svg" viewBox="0 0 256 256"><rect x="14" y="14" width="228" height="228" rx="58" fill="#0A84FF"/><rect x="28" y="28" width="200" height="200" rx="46" fill="none" stroke="white" stroke-opacity=".3" stroke-width="4"/><path d="M80 123h96a12 12 0 0 1 12 12v12a22 22 0 0 1-22 22H90a22 22 0 0 1-22-22v-12a12 12 0 0 1 12-12Z" fill="none" stroke="white" stroke-width="10"/><path d="M103 118c0-24 50-24 50 0M128 80v30M186 62v30M171 77h30M58 70v22M47 81h22" stroke="#D6EEFF" stroke-width="8" stroke-linecap="round"/></svg>